<svg width="32" height="32" viewBox="0 0 32 32" fill="none" xmlns="http://www.w3.org/2000/svg">
<g clip-path="url(#clip0_3752_16933)">
<path d="M9.09539 13.6562C9.09539 14.0456 9.13749 14.3614 9.21118 14.593C9.29539 14.8246 9.40065 15.0772 9.54802 15.3509C9.60065 15.4351 9.62171 15.5193 9.62171 15.593C9.62171 15.6983 9.55855 15.8035 9.42171 15.9088L8.75855 16.3509C8.66381 16.414 8.56907 16.4456 8.48486 16.4456C8.3796 16.4456 8.27434 16.393 8.16907 16.2983C8.02171 16.1404 7.89539 15.9719 7.79013 15.8035C7.68486 15.6246 7.5796 15.4246 7.46381 15.1825C6.64276 16.1509 5.61118 16.6351 4.36907 16.6351C3.48486 16.6351 2.7796 16.3825 2.26381 15.8772C1.74802 15.3719 1.48486 14.6983 1.48486 13.8562C1.48486 12.9614 1.80065 12.2351 2.44276 11.6877C3.08486 11.1404 3.93749 10.8667 5.0217 10.8667C5.3796 10.8667 5.74802 10.8983 6.13749 10.9509C6.52697 11.0035 6.92697 11.0877 7.34802 11.1825V10.414C7.34802 9.61405 7.1796 9.05615 6.85328 8.72984C6.51644 8.40352 5.94802 8.24563 5.13749 8.24563C4.76907 8.24563 4.39013 8.28773 4.00065 8.38247C3.61118 8.47721 3.23223 8.593 2.86381 8.74037C2.69539 8.81405 2.56907 8.85615 2.49539 8.87721C2.42171 8.89826 2.36907 8.90879 2.32697 8.90879C2.1796 8.90879 2.10592 8.80352 2.10592 8.58247V8.06668C2.10592 7.89826 2.12697 7.77194 2.1796 7.69826C2.23223 7.62458 2.32697 7.55089 2.47434 7.47721C2.84276 7.28773 3.28486 7.12984 3.80065 7.00352C4.31644 6.86668 4.86381 6.80352 5.44276 6.80352C6.69539 6.80352 7.61118 7.08773 8.20065 7.65615C8.7796 8.22458 9.07434 9.08773 9.07434 10.2456V13.6562H9.09539ZM4.82171 15.2562C5.16907 15.2562 5.52697 15.193 5.90592 15.0667C6.28486 14.9404 6.62171 14.7088 6.90592 14.393C7.07434 14.193 7.20065 13.9719 7.26381 13.7193C7.32697 13.4667 7.36907 13.1614 7.36907 12.8035V12.3614C7.06381 12.2877 6.73749 12.2246 6.40065 12.1825C6.06381 12.1404 5.73749 12.1193 5.41118 12.1193C4.70592 12.1193 4.19013 12.2562 3.84276 12.5404C3.49539 12.8246 3.32697 13.2246 3.32697 13.7509C3.32697 14.2456 3.45328 14.614 3.71644 14.8667C3.96907 15.1298 4.33749 15.2562 4.82171 15.2562ZM13.2743 16.393C13.0849 16.393 12.9585 16.3614 12.8743 16.2877C12.7901 16.2246 12.7164 16.0772 12.6533 15.8772L10.1796 7.74037C10.1164 7.52984 10.0849 7.393 10.0849 7.31931C10.0849 7.15089 10.1691 7.05615 10.3375 7.05615H11.3691C11.5691 7.05615 11.7059 7.08773 11.7796 7.16142C11.8638 7.22458 11.927 7.37194 11.9901 7.57194L13.7585 14.5404L15.4007 7.57194C15.4533 7.36142 15.5164 7.22458 15.6007 7.16142C15.6849 7.09826 15.8322 7.05615 16.0217 7.05615H16.8638C17.0638 7.05615 17.2007 7.08773 17.2849 7.16142C17.3691 7.22458 17.4428 7.37194 17.4849 7.57194L19.148 14.6246L20.9691 7.57194C21.0322 7.36142 21.1059 7.22458 21.1796 7.16142C21.2638 7.09826 21.4007 7.05615 21.5901 7.05615H22.5691C22.7375 7.05615 22.8322 7.14037 22.8322 7.31931C22.8322 7.37194 22.8217 7.42458 22.8112 7.48773C22.8006 7.55089 22.7796 7.6351 22.7375 7.75089L20.2007 15.8877C20.1375 16.0983 20.0638 16.2351 19.9796 16.2983C19.8954 16.3614 19.7585 16.4035 19.5796 16.4035H18.6743C18.4743 16.4035 18.3375 16.3719 18.2533 16.2983C18.1691 16.2246 18.0954 16.0877 18.0533 15.8772L16.4217 9.08773L14.8007 15.8667C14.748 16.0772 14.6849 16.214 14.6007 16.2877C14.5164 16.3614 14.3691 16.393 14.1796 16.393H13.2743ZM26.8007 16.6772C26.2533 16.6772 25.7059 16.614 25.1796 16.4877C24.6533 16.3614 24.2428 16.2246 23.9691 16.0667C23.8006 15.9719 23.6849 15.8667 23.6428 15.7719C23.6007 15.6772 23.5796 15.5719 23.5796 15.4772V14.9404C23.5796 14.7193 23.6638 14.614 23.8217 14.614C23.8849 14.614 23.948 14.6246 24.0112 14.6456C24.0743 14.6667 24.1691 14.7088 24.2743 14.7509C24.6322 14.9088 25.0217 15.0351 25.4322 15.1193C25.8533 15.2035 26.2638 15.2456 26.6849 15.2456C27.348 15.2456 27.8638 15.1298 28.2217 14.8983C28.5796 14.6667 28.7691 14.3298 28.7691 13.8983C28.7691 13.6035 28.6743 13.3614 28.4849 13.1614C28.2954 12.9614 27.9375 12.7825 27.4217 12.614L25.8954 12.1404C25.127 11.8983 24.5585 11.5404 24.2112 11.0667C23.8638 10.6035 23.6849 10.0877 23.6849 9.54037C23.6849 9.09826 23.7796 8.70879 23.9691 8.37194C24.1585 8.0351 24.4112 7.74037 24.727 7.50879C25.0428 7.26668 25.4007 7.08773 25.8217 6.96142C26.2428 6.8351 26.6849 6.78247 27.148 6.78247C27.3796 6.78247 27.6217 6.793 27.8533 6.82458C28.0954 6.85615 28.3164 6.89826 28.5375 6.94037C28.748 6.993 28.948 7.04563 29.1375 7.10879C29.327 7.17194 29.4743 7.2351 29.5796 7.29826C29.727 7.38247 29.8322 7.46668 29.8954 7.56142C29.9585 7.64563 29.9901 7.76142 29.9901 7.90879V8.40352C29.9901 8.62458 29.9059 8.74037 29.748 8.74037C29.6638 8.74037 29.527 8.69826 29.348 8.61405C28.748 8.34037 28.0743 8.20352 27.327 8.20352C26.727 8.20352 26.2533 8.29826 25.927 8.49826C25.6007 8.69826 25.4322 9.00352 25.4322 9.4351C25.4322 9.72984 25.5375 9.98247 25.748 10.1825C25.9585 10.3825 26.348 10.5825 26.9059 10.7614L28.4007 11.2351C29.1585 11.4772 29.7059 11.814 30.0322 12.2456C30.3585 12.6772 30.5164 13.1719 30.5164 13.7193C30.5164 14.1719 30.4217 14.5825 30.2428 14.9404C30.0533 15.2983 29.8006 15.614 29.4743 15.8667C29.148 16.1298 28.7585 16.3193 28.3059 16.4562C27.8322 16.6035 27.3375 16.6772 26.8007 16.6772Z" fill="#252F3E"/>
<path fill-rule="evenodd" clip-rule="evenodd" d="M28.7897 21.793C25.3265 24.3509 20.2949 25.7087 15.9686 25.7087C9.90547 25.7087 4.44231 23.4666 0.315994 19.7403C-0.0103222 19.4456 0.284415 19.0456 0.673888 19.2772C5.13705 21.8666 10.6423 23.4351 16.337 23.4351C20.1791 23.4351 24.4002 22.6351 28.2844 20.993C28.8634 20.7298 29.3581 21.3719 28.7897 21.793Z" fill="#FF9900"/>
<path fill-rule="evenodd" clip-rule="evenodd" d="M30.2318 20.1508C29.7897 19.5824 27.3055 19.8771 26.1792 20.0139C25.8423 20.056 25.7897 19.7613 26.095 19.5403C28.0739 18.1508 31.3265 18.5508 31.7055 19.0139C32.0844 19.4876 31.6002 22.7403 29.7476 24.2981C29.4634 24.5403 29.1897 24.4139 29.316 24.0981C29.7371 23.056 30.6739 20.7087 30.2318 20.1508Z" fill="#FF9900"/>
</g>
<defs>
<clipPath id="clip0_3752_16933">
<rect width="32" height="19.1579" fill="white" transform="translate(0 6.66675)"/>
</clipPath>
</defs>
</svg>
