<svg width="32" height="32" viewBox="0 0 32 32" fill="none" xmlns="http://www.w3.org/2000/svg">
<g clip-path="url(#clip0_3752_16925)">
<path d="M20.364 10.2439L21.389 10.2614L24.174 7.47638L24.309 6.29638C22.1 4.32838 19.1835 3.12988 15.9965 3.12988C10.2265 3.12988 5.35654 7.05588 3.91504 12.3739C4.21904 12.1619 4.86904 12.3209 4.86904 12.3209L10.434 11.4059C10.434 11.4059 10.72 10.9324 10.865 10.9559C11.5158 10.241 12.3087 9.6699 13.1929 9.27925C14.0772 8.88861 15.0333 8.68701 16 8.68738C17.65 8.69088 19.17 9.27388 20.364 10.2384V10.2439Z" fill="#EA4335"/>
<path d="M28.0851 12.3849C27.4386 9.99989 26.1061 7.89389 24.3076 6.29639L20.3641 10.2399C21.9441 11.5149 22.9576 13.4659 22.9576 15.6499V16.3459C24.8761 16.3459 26.4346 17.9079 26.4346 19.8229C26.4346 21.7414 24.8726 23.2999 22.9576 23.2999H16.0036L15.3076 23.9999V28.1729L16.0036 28.8654H22.9576C25.3547 28.8621 27.6527 27.9084 29.3478 26.2134C31.0429 24.5185 31.9967 22.2205 32.0001 19.8234C31.9966 16.7459 30.4501 14.0229 28.0851 12.3849Z" fill="#4285F4"/>
<path d="M9.0426 28.87H15.9926V23.3H9.0426C8.54883 23.3001 8.0608 23.194 7.6116 22.989L6.6081 23.2965L3.8231 26.0815L3.5791 27.0215C5.14854 28.2188 7.0681 28.8669 9.0421 28.866L9.0426 28.87Z" fill="#34A853"/>
<path d="M9.0425 10.7849C6.64538 10.7882 4.34738 11.7419 2.65232 13.4369C0.957249 15.1318 0.0034392 17.4298 0 19.8269C0 22.7634 1.4065 25.3744 3.583 27.0284L7.615 22.9964C7.00471 22.7212 6.48675 22.2758 6.12323 21.7137C5.75971 21.1515 5.56606 20.4964 5.5655 19.8269C5.5655 17.9084 7.1275 16.3499 9.0425 16.3499C10.4525 16.3499 11.6645 17.1999 12.2125 18.3999L16.2445 14.3679C14.591 12.1914 11.9795 10.7849 9.043 10.7849H9.0425Z" fill="#FBBC05"/>
</g>
<defs>
<clipPath id="clip0_3752_16925">
<rect width="32" height="32" fill="white"/>
</clipPath>
</defs>
</svg>
