<svg width="32" height="32" viewBox="0 0 32 32" fill="none" xmlns="http://www.w3.org/2000/svg">
<path d="M30.08 16.3333C30.08 15.2933 29.9867 14.2933 29.8133 13.3333H16V19.0133H23.8933C23.5467 20.8399 22.5067 22.3866 20.9467 23.4266V27.1199H25.7067C28.48 24.5599 30.08 20.7999 30.08 16.3333Z" fill="#4285F4"/>
<path d="M16.0001 30.6667C19.9601 30.6667 23.2801 29.36 25.7067 27.12L20.9467 23.4267C19.6401 24.3067 17.9734 24.84 16.0001 24.84C12.1867 24.84 8.94674 22.2667 7.78674 18.8H2.90674V22.5867C5.32007 27.3734 10.2667 30.6667 16.0001 30.6667Z" fill="#34A853"/>
<path d="M7.78683 18.7868C7.4935 17.9068 7.32016 16.9734 7.32016 16.0001C7.32016 15.0268 7.4935 14.0934 7.78683 13.2134V9.42676H2.90683C1.90683 11.4001 1.3335 13.6268 1.3335 16.0001C1.3335 18.3734 1.90683 20.6001 2.90683 22.5734L6.70683 19.6134L7.78683 18.7868Z" fill="#FBBC05"/>
<path d="M16.0001 7.17325C18.1601 7.17325 20.0801 7.91992 21.6134 9.35992L25.8134 5.15992C23.2667 2.78659 19.9601 1.33325 16.0001 1.33325C10.2667 1.33325 5.32007 4.62659 2.90674 9.42659L7.78674 13.2133C8.94674 9.74659 12.1867 7.17325 16.0001 7.17325Z" fill="#EA4335"/>
</svg>
