<svg width="32" height="32" viewBox="0 0 32 32" fill="none" xmlns="http://www.w3.org/2000/svg">
<g clip-path="url(#clip0_3752_16918)">
<path d="M9.3784 14.576C9.28456 14.4531 9.16055 14.3564 9.0184 14.2955C8.87626 14.2346 8.72078 14.2114 8.56704 14.2282C8.4133 14.245 8.26651 14.3013 8.14089 14.3915C8.01527 14.4817 7.91509 14.6028 7.85004 14.7432L0.0983969 30.2464C0.0275913 30.3876 -0.00597853 30.5444 0.000872951 30.7022C0.00772443 30.8599 0.05477 31.0133 0.137545 31.1477C0.22032 31.2822 0.336079 31.3932 0.473836 31.4704C0.611593 31.5475 0.766778 31.5882 0.924666 31.5885H11.7187C11.8934 31.5919 12.0653 31.5439 12.213 31.4505C12.3607 31.3571 12.4778 31.2224 12.5497 31.0632C14.8757 26.287 13.4668 18.9461 9.3784 14.576Z" fill="url(#paint0_linear_3752_16918)"/>
<path d="M15.0667 0.496022C13.1343 3.46878 12.0082 6.89295 11.7989 10.4324C11.5895 13.9718 12.3042 17.5049 13.8727 20.6847L19.1025 31.0632C19.1788 31.2174 19.2965 31.3473 19.4424 31.4384C19.5884 31.5295 19.7568 31.5782 19.9288 31.579H30.7228C30.8741 31.5665 31.0203 31.5182 31.1492 31.4379C31.2781 31.3577 31.3859 31.2479 31.4639 31.1176C31.5419 30.9873 31.5877 30.8404 31.5975 30.6889C31.6074 30.5374 31.5809 30.3857 31.5205 30.2465L16.6428 0.496022C16.5716 0.347474 16.4598 0.22209 16.3204 0.134328C16.1809 0.0465657 16.0195 0 15.8548 0C15.69 0 15.5286 0.0465657 15.3892 0.134328C15.2498 0.22209 15.138 0.347474 15.0667 0.496022Z" fill="#2684FF"/>
</g>
<defs>
<linearGradient id="paint0_linear_3752_16918" x1="13.6291" y1="16.9688" x2="5.44765" y2="31.1443" gradientUnits="userSpaceOnUse">
<stop stop-color="#0052CC"/>
<stop offset="0.92" stop-color="#2684FF"/>
</linearGradient>
<clipPath id="clip0_3752_16918">
<rect width="32" height="32" fill="white"/>
</clipPath>
</defs>
</svg>
