<svg width="32" height="32" viewBox="0 0 32 32" fill="none" xmlns="http://www.w3.org/2000/svg">
<path d="M11.1126 2.18124H19.792L10.782 28.8769C10.6894 29.1512 10.5131 29.3896 10.2779 29.5585C10.0427 29.7273 9.76049 29.8182 9.47097 29.8182H2.7163C2.49694 29.8183 2.28072 29.7661 2.08553 29.6659C1.89035 29.5658 1.72181 29.4207 1.59386 29.2425C1.46591 29.0643 1.38222 28.8582 1.34972 28.6413C1.31722 28.4243 1.33684 28.2028 1.40697 27.9949L9.8013 3.12257C9.89386 2.84814 10.0702 2.60966 10.3054 2.44073C10.5407 2.2718 10.823 2.18126 11.1126 2.18124Z" fill="url(#paint0_linear_3752_16932)"/>
<path d="M23.7253 20.0869H9.96192C9.83397 20.0868 9.70893 20.1252 9.60311 20.1971C9.49729 20.269 9.41558 20.3712 9.36864 20.4902C9.32169 20.6092 9.31169 20.7397 9.33992 20.8645C9.36815 20.9893 9.43332 21.1027 9.52692 21.1899L18.3709 29.4446C18.6284 29.6848 18.9675 29.8183 19.3196 29.8182H27.1129L23.7253 20.0869Z" fill="#0078D4"/>
<path d="M11.1128 2.18141C10.82 2.18028 10.5346 2.27281 10.2981 2.44546C10.0616 2.61811 9.88658 2.86185 9.79849 3.14107L1.41749 27.9724C1.34265 28.181 1.31915 28.4046 1.34899 28.6242C1.37882 28.8438 1.46111 29.053 1.5889 29.2341C1.71668 29.4152 1.8862 29.5628 2.08311 29.6645C2.28002 29.7662 2.49853 29.819 2.72015 29.8184H9.64915C9.90722 29.7723 10.1484 29.6585 10.3481 29.4887C10.5478 29.3188 10.6989 29.099 10.7858 28.8517L12.4572 23.9261L18.4272 29.4944C18.6773 29.7013 18.9912 29.8158 19.3158 29.8184H27.0802L23.6748 20.0871L13.7478 20.0894L19.8235 2.18141H11.1128Z" fill="url(#paint1_linear_3752_16932)"/>
<path d="M22.1986 3.1214C22.1062 2.84741 21.9301 2.60932 21.6952 2.44069C21.4604 2.27205 21.1785 2.18136 20.8893 2.1814H11.2163C11.5055 2.18141 11.7873 2.27212 12.0222 2.44075C12.2571 2.60938 12.4332 2.84744 12.5256 3.1214L20.9203 27.9947C20.9905 28.2026 21.0102 28.4242 20.9777 28.6412C20.9452 28.8582 20.8615 29.0644 20.7336 29.2426C20.6056 29.4209 20.4371 29.5661 20.2419 29.6663C20.0467 29.7665 19.8304 29.8187 19.611 29.8187H29.2843C29.5037 29.8187 29.7199 29.7664 29.9151 29.6662C30.1103 29.566 30.2788 29.4207 30.4067 29.2425C30.5346 29.0643 30.6182 28.8581 30.6507 28.6412C30.6831 28.4242 30.6635 28.2026 30.5933 27.9947L22.1986 3.1214Z" fill="url(#paint2_linear_3752_16932)"/>
<defs>
<linearGradient id="paint0_linear_3752_16932" x1="14.276" y1="4.22924" x2="5.2623" y2="30.8579" gradientUnits="userSpaceOnUse">
<stop stop-color="#114A8B"/>
<stop offset="1" stop-color="#0669BC"/>
</linearGradient>
<linearGradient id="paint1_linear_3752_16932" x1="17.0918" y1="16.6391" x2="15.0068" y2="17.3441" gradientUnits="userSpaceOnUse">
<stop stop-opacity="0.3"/>
<stop offset="0.071" stop-opacity="0.2"/>
<stop offset="0.321" stop-opacity="0.1"/>
<stop offset="0.623" stop-opacity="0.05"/>
<stop offset="1" stop-opacity="0"/>
</linearGradient>
<linearGradient id="paint2_linear_3752_16932" x1="15.9453" y1="3.45273" x2="25.8396" y2="29.8131" gradientUnits="userSpaceOnUse">
<stop stop-color="#3CCBF4"/>
<stop offset="1" stop-color="#2892DF"/>
</linearGradient>
</defs>
</svg>
