<svg width="32" height="32" viewBox="0 0 32 32" fill="none" xmlns="http://www.w3.org/2000/svg">
<g clip-path="url(#clip0_3752_16917)">
<path d="M13.0311 0.746094L12.8677 0.844937C12.6078 1.00217 12.3629 1.17798 12.1344 1.37007L12.6057 1.03853H16.6062L17.3335 6.54545L13.6971 10.1818L10.0608 12.7094V15.6239C10.0608 17.6596 11.1247 19.5472 12.8662 20.6013L16.6943 22.9185L8.60622 27.6365H7.0463L4.13886 25.8767C2.39739 24.8225 1.3335 22.9349 1.3335 20.8993V11.0986C1.3335 9.06233 2.39807 7.17418 4.14042 6.12029L12.8677 0.841359C12.9218 0.808646 12.9763 0.776894 13.0311 0.746094Z" fill="url(#paint0_radial_3752_16917)"/>
<path d="M13.0311 0.746094L12.8677 0.844937C12.6078 1.00217 12.3629 1.17798 12.1344 1.37007L12.6057 1.03853H16.6062L17.3335 6.54545L13.6971 10.1818L10.0608 12.7094V15.6239C10.0608 17.6596 11.1247 19.5472 12.8662 20.6013L16.6943 22.9185L8.60622 27.6365H7.0463L4.13886 25.8767C2.39739 24.8225 1.3335 22.9349 1.3335 20.8993V11.0986C1.3335 9.06233 2.39807 7.17418 4.14042 6.12029L12.8677 0.841359C12.9218 0.808646 12.9763 0.776894 13.0311 0.746094Z" fill="url(#paint1_linear_3752_16917)"/>
<path d="M21.6973 12.3635V15.6219C21.6973 17.6576 20.6334 19.5452 18.8919 20.5993L10.1647 25.8819C8.37934 26.9626 6.15804 27.0016 4.34131 25.9989L12.8663 31.1592C14.7183 32.2803 17.0398 32.2803 18.8919 31.1592L27.6192 25.8765C29.3607 24.8224 30.4245 22.9347 30.4245 20.8991V18.5453L29.6972 17.4544L21.6973 12.3635Z" fill="url(#paint2_radial_3752_16917)"/>
<path d="M21.6973 12.3635V15.6219C21.6973 17.6576 20.6334 19.5452 18.8919 20.5993L10.1647 25.8819C8.37934 26.9626 6.15804 27.0016 4.34131 25.9989L12.8663 31.1592C14.7183 32.2803 17.0398 32.2803 18.8919 31.1592L27.6192 25.8765C29.3607 24.8224 30.4245 22.9347 30.4245 20.8991V18.5453L29.6972 17.4544L21.6973 12.3635Z" fill="url(#paint3_linear_3752_16917)"/>
<path d="M27.6173 6.12026L18.89 0.841339C17.096 -0.243803 14.8621 -0.277417 13.0408 0.740488L12.8675 0.845361C11.1251 1.89927 10.0605 3.78737 10.0605 5.82368V12.7211L12.8675 11.0232C14.7188 9.90339 17.0387 9.90339 18.89 11.0232L27.6173 16.3021C29.3051 17.3231 30.357 19.1269 30.4211 21.0899C30.4232 21.0264 30.4242 20.963 30.4242 20.8992V11.0986C30.4242 9.0623 29.3596 7.17415 27.6173 6.12026Z" fill="url(#paint4_radial_3752_16917)"/>
<path d="M27.6173 6.12026L18.89 0.841339C17.096 -0.243803 14.8621 -0.277417 13.0408 0.740488L12.8675 0.845361C11.1251 1.89927 10.0605 3.78737 10.0605 5.82368V12.7211L12.8675 11.0232C14.7188 9.90339 17.0387 9.90339 18.89 11.0232L27.6173 16.3021C29.3051 17.3231 30.357 19.1269 30.4211 21.0899C30.4232 21.0264 30.4242 20.963 30.4242 20.8992V11.0986C30.4242 9.0623 29.3596 7.17415 27.6173 6.12026Z" fill="url(#paint5_linear_3752_16917)"/>
</g>
<defs>
<radialGradient id="paint0_radial_3752_16917" cx="0" cy="0" r="1" gradientUnits="userSpaceOnUse" gradientTransform="translate(11.0925 6.2824) rotate(110.528) scale(24.266 42.3248)">
<stop offset="0.06441" stop-color="#AE7FE2"/>
<stop offset="1" stop-color="#0078D4"/>
</radialGradient>
<linearGradient id="paint1_linear_3752_16917" x1="11.1603" y1="26.0862" x2="7.69808" y2="20.098" gradientUnits="userSpaceOnUse">
<stop stop-color="#114A8B"/>
<stop offset="1" stop-color="#0078D4" stop-opacity="0"/>
</linearGradient>
<radialGradient id="paint2_radial_3752_16917" cx="0" cy="0" r="1" gradientUnits="userSpaceOnUse" gradientTransform="translate(6.00996 24.9825) rotate(-8.36717) scale(22.582 14.9169)">
<stop offset="0.133928" stop-color="#D59DFF"/>
<stop offset="1" stop-color="#5E438F"/>
</radialGradient>
<linearGradient id="paint3_linear_3752_16917" x1="27.7748" y1="17.0012" x2="24.0647" y2="22.3211" gradientUnits="userSpaceOnUse">
<stop stop-color="#493474"/>
<stop offset="1" stop-color="#8C66BA" stop-opacity="0"/>
</linearGradient>
<radialGradient id="paint4_radial_3752_16917" cx="0" cy="0" r="1" gradientUnits="userSpaceOnUse" gradientTransform="translate(28.2825 17.8211) rotate(-165.772) scale(18.1257 30.5129)">
<stop offset="0.0584996" stop-color="#50E6FF"/>
<stop offset="1" stop-color="#436DCD"/>
</radialGradient>
<linearGradient id="paint5_linear_3752_16917" x1="10.7702" y1="0.768444" x2="16.2328" y2="0.768444" gradientUnits="userSpaceOnUse">
<stop stop-color="#2D3F80"/>
<stop offset="1" stop-color="#436DCD" stop-opacity="0"/>
</linearGradient>
<clipPath id="clip0_3752_16917">
<rect width="29.0909" height="32" fill="white" transform="translate(1.3335)"/>
</clipPath>
</defs>
</svg>
