<svg width="32" height="32" viewBox="0 0 32 32" fill="none" xmlns="http://www.w3.org/2000/svg">
<g clip-path="url(#clip0_3752_16935)">
<path d="M6.75879 24.9459C7.44857 25.3761 8.59523 25.8543 9.80768 25.8543C10.9117 25.8543 11.9375 25.5343 12.7872 24.9886C12.7872 24.9886 12.789 24.9886 12.7908 24.9868L15.9997 22.9814V30.2223C15.4912 30.2223 14.9792 30.0837 14.5348 29.8063L6.75879 24.9459Z" fill="#225086"/>
<path d="M13.9609 2.67917L0.627549 17.7192C-0.401784 18.8818 -0.13334 20.6383 1.20177 21.4721C1.20177 21.4721 6.13688 24.5565 6.7591 24.9458C7.44888 25.3761 8.59555 25.8543 9.80799 25.8543C10.912 25.8543 11.9378 25.5343 12.7875 24.9885C12.7875 24.9885 12.7893 24.9885 12.7911 24.9867L16 22.9814L8.24177 18.1316L16.0018 9.37783V1.77783C15.248 1.77783 14.4942 2.07828 13.9609 2.67917Z" fill="#66DDFF"/>
<path d="M8.24219 18.1315L8.33463 18.1884L16.0004 22.9812H16.0022V9.37946L16.0004 9.37769L8.24219 18.1315Z" fill="#CBF8FF"/>
<path d="M30.7984 21.4719C32.1335 20.6381 32.402 18.8817 31.3726 17.719L22.6242 7.85059C21.9184 7.5217 21.1273 7.33325 20.29 7.33325C18.6455 7.33325 17.1753 8.04259 16.1975 9.15725L16.0037 9.37592L23.762 18.1297L16.002 22.9795V30.2204C16.5122 30.2204 17.0206 30.0817 17.4651 29.8044L30.7984 21.4701V21.4719Z" fill="#074793"/>
<path d="M16.0018 1.77783V9.37783L16.1956 9.15917C17.1733 8.0445 18.6436 7.33517 20.288 7.33517C21.1271 7.33517 21.9164 7.52539 22.6222 7.8525L18.0373 2.68094C17.5058 2.08005 16.752 1.77961 16 1.77961L16.0018 1.77783Z" fill="#0294E4"/>
<path d="M23.7602 18.1314L16.002 9.37939V22.9794L23.7602 18.1314Z" fill="#96BCC2"/>
</g>
<defs>
<clipPath id="clip0_3752_16935">
<rect width="32" height="32" fill="white"/>
</clipPath>
</defs>
</svg>
