<svg width="32" height="32" viewBox="0 0 32 32" fill="none" xmlns="http://www.w3.org/2000/svg">
<g clip-path="url(#clip0_3752_16931)">
<mask id="mask0_3752_16931" style="mask-type:luminance" maskUnits="userSpaceOnUse" x="0" y="5" width="32" height="23">
<path d="M0.00683594 5.39111H31.8896V27.3707H0.00683594V5.39111Z" fill="white"/>
</mask>
<g mask="url(#mask0_3752_16931)">
<path fill-rule="evenodd" clip-rule="evenodd" d="M13.2457 7.79738C14.2749 6.74005 15.7073 6.08529 17.2897 6.08529C19.3996 6.08529 21.2281 7.24211 22.2128 8.96577C23.0868 8.58017 24.0334 8.3811 24.9908 8.38158C28.7886 8.38158 31.8714 11.4471 31.8714 15.2299C31.8714 19.0127 28.7886 22.0783 24.9908 22.0783C24.5266 22.0783 24.0741 22.0323 23.6311 21.9453C22.7695 23.4607 21.1226 24.4903 19.2472 24.4903C18.4836 24.4918 17.7298 24.3208 17.0435 23.9905C16.1703 26.015 14.1366 27.4379 11.7688 27.4379C9.29554 27.4379 7.19737 25.8993 6.38858 23.736C6.0286 23.811 5.66168 23.8487 5.29378 23.8485C2.35166 23.8485 -0.027832 21.4654 -0.027832 18.5387C-0.027832 16.5721 1.04352 14.86 2.63297 13.9345C2.29577 13.1679 2.1222 12.341 2.12308 11.5052C2.12308 8.12731 4.90111 5.39722 8.32382 5.39722C10.3282 5.39722 12.1216 6.34002 13.2469 7.8034" fill="#00A1E0"/>
</g>
<path fill-rule="evenodd" clip-rule="evenodd" d="M4.61858 16.8206C4.59853 16.8722 4.62573 16.883 4.63217 16.8921C4.69207 16.9349 4.75291 16.9659 4.81386 17.0007C5.13972 17.1708 5.44683 17.2205 5.768 17.2205C6.42206 17.2205 6.8288 16.8769 6.8288 16.324V16.3131C6.8288 15.8018 6.36932 15.6155 5.94031 15.4825L5.88416 15.4646C5.55947 15.3607 5.27932 15.2702 5.27932 15.0597V15.0489C5.27932 14.8685 5.44343 14.7354 5.69661 14.7354C5.97793 14.7354 6.31317 14.8279 6.52768 14.9448C6.52768 14.9448 6.59121 14.9853 6.6143 14.9248C6.62684 14.8921 6.7362 14.6032 6.74793 14.5708C6.76035 14.5369 6.73855 14.5114 6.71616 14.4982C6.47001 14.3501 6.13008 14.2495 5.77843 14.2495L5.71314 14.2497C5.11417 14.2497 4.69571 14.6071 4.69571 15.1185V15.1295C4.69571 15.6685 5.15754 15.8444 5.58889 15.9658L5.65828 15.9871C5.97242 16.0824 6.24436 16.1653 6.24436 16.3827V16.3936C6.24436 16.5938 6.06737 16.743 5.78371 16.743C5.67341 16.743 5.32187 16.7411 4.94092 16.5035C4.89486 16.477 4.8686 16.4579 4.83308 16.4365C4.81433 16.4253 4.76744 16.4051 4.74705 16.4657L4.61811 16.8197M14.1947 16.8197C14.1746 16.8713 14.2018 16.882 14.2085 16.8912C14.2682 16.934 14.3292 16.965 14.3902 16.9998C14.716 17.1698 15.0231 17.2196 15.3443 17.2196C15.9984 17.2196 16.4051 16.876 16.4051 16.3231V16.3122C16.4051 15.8009 15.9468 15.6146 15.5166 15.4816L15.4605 15.4637C15.1358 15.3598 14.8556 15.2693 14.8556 15.0588V15.048C14.8556 14.8675 15.0197 14.7345 15.2729 14.7345C15.5543 14.7345 15.8883 14.8269 16.104 14.9439C16.104 14.9439 16.1675 14.9844 16.1907 14.9239C16.2032 14.8911 16.3126 14.6023 16.3232 14.5699C16.3357 14.536 16.3138 14.5104 16.2915 14.4973C16.0454 14.3492 15.7055 14.2485 15.3538 14.2485L15.2884 14.2488C14.6894 14.2488 14.271 14.6062 14.271 15.1175V15.1285C14.271 15.6676 14.7328 15.8434 15.1642 15.9649L15.2334 15.9862C15.5487 16.0815 15.8195 16.1643 15.8195 16.3818V16.3927C15.8195 16.5928 15.6425 16.7421 15.3589 16.7421C15.2483 16.7421 14.8959 16.7402 14.5161 16.5026C14.47 16.4761 14.443 16.4578 14.4081 16.4356C14.3963 16.4282 14.3411 16.4069 14.3222 16.4648L14.1933 16.8188M20.7339 15.736C20.7339 16.0483 20.6748 16.2947 20.5593 16.4694C20.4439 16.6418 20.2697 16.7262 20.0271 16.7262C19.7845 16.7262 19.611 16.6425 19.4973 16.4706C19.3828 16.297 19.325 16.0495 19.325 15.7371C19.325 15.4248 19.3831 15.1795 19.4973 15.0072C19.6108 14.836 19.7833 14.7538 20.0271 14.7538C20.2709 14.7538 20.4444 14.8368 20.5593 15.0072C20.6755 15.1795 20.7339 15.4248 20.7339 15.7371M21.2801 15.1576C21.2263 14.9783 21.143 14.8209 21.0316 14.6891C20.9202 14.5572 20.7796 14.4507 20.612 14.3744C20.4456 14.2975 20.2486 14.2587 20.0259 14.2587C19.8032 14.2587 19.6075 14.2977 19.4398 14.3744C19.2734 14.4512 19.1316 14.5572 19.0202 14.6891C18.9091 14.8209 18.8256 14.9783 18.7717 15.1576C18.7184 15.3357 18.6913 15.5301 18.6913 15.7371C18.6913 15.9442 18.7184 16.1385 18.7717 16.3167C18.8253 16.496 18.9089 16.6533 19.0202 16.7852C19.1317 16.9171 19.2734 17.0224 19.4398 17.0975C19.6075 17.1725 19.8044 17.2107 20.0259 17.2107C20.2475 17.2107 20.4444 17.1725 20.6108 17.0975C20.7773 17.0226 20.9191 16.9171 21.0305 16.7852C21.1417 16.6533 21.2251 16.496 21.279 16.3167C21.3322 16.1385 21.3593 15.9442 21.3593 15.7371C21.3593 15.5312 21.3322 15.3357 21.279 15.1576M25.7683 16.6383C25.7504 16.5859 25.6986 16.6057 25.6986 16.6057C25.6193 16.6356 25.5345 16.6634 25.4442 16.6773C25.3533 16.6914 25.252 16.6984 25.1453 16.6984C24.8816 16.6984 24.6706 16.6208 24.5206 16.4671C24.3694 16.3132 24.285 16.0657 24.2862 15.7302C24.287 15.4248 24.3618 15.1957 24.496 15.0199C24.6284 14.8464 24.8324 14.7561 25.102 14.7561C25.327 14.7561 25.4993 14.7819 25.6799 14.8377C25.6799 14.8377 25.7226 14.8561 25.7431 14.8005C25.7911 14.6697 25.8265 14.576 25.8779 14.4326C25.8925 14.3915 25.8568 14.3742 25.8438 14.3692C25.773 14.3419 25.6059 14.2971 25.4793 14.2783C25.3609 14.2604 25.2238 14.2512 25.069 14.2512C24.8393 14.2512 24.6353 14.2899 24.4607 14.3668C24.286 14.4435 24.1383 14.5495 24.0211 14.6814C23.9039 14.8133 23.8148 14.9706 23.755 15.1499C23.6959 15.3281 23.666 15.5236 23.666 15.7307C23.666 16.1772 23.7879 16.5393 24.0293 16.8042C24.2708 17.0702 24.6342 17.2044 25.1077 17.2044C25.3879 17.2044 25.675 17.1486 25.8813 17.0679C25.8813 17.0679 25.9207 17.0492 25.9036 17.0038L25.7688 16.6383M26.7241 15.4352C26.7503 15.2617 26.7984 15.1171 26.8742 15.0049C26.9875 14.8337 27.1602 14.74 27.4028 14.74C27.6454 14.74 27.806 14.8341 27.9209 15.0049C27.9971 15.1177 28.0304 15.2675 28.0428 15.4352L26.7183 15.435L26.7241 15.4352ZM28.5644 15.0534C28.5179 14.8811 28.4027 14.7064 28.3276 14.6266C28.2081 14.5005 28.092 14.4114 27.976 14.3628C27.8085 14.2925 27.6282 14.2564 27.4462 14.2567C27.2153 14.2567 27.0054 14.2953 26.8355 14.3736C26.6655 14.4525 26.5225 14.5598 26.41 14.694C26.2976 14.8282 26.2131 14.9867 26.1591 15.1683C26.1052 15.3476 26.078 15.5443 26.078 15.7502C26.078 15.9607 26.1063 16.1562 26.1618 16.3332C26.218 16.5114 26.3084 16.6676 26.4303 16.7971C26.5522 16.9278 26.7081 17.0296 26.8956 17.1014C27.082 17.1725 27.3082 17.2094 27.5673 17.2086C28.1018 17.2069 28.3831 17.0894 28.498 17.0258C28.5185 17.0145 28.5378 16.9949 28.5137 16.9386L28.3929 16.6043C28.3744 16.5544 28.3233 16.5725 28.3233 16.5725C28.1909 16.6213 28.0033 16.709 27.5637 16.7078C27.2766 16.7074 27.0644 16.6237 26.9308 16.4926C26.7948 16.3585 26.7268 16.163 26.7163 15.8853L28.5683 15.8867C28.5683 15.8867 28.6171 15.8862 28.6221 15.8393C28.6241 15.8198 28.6855 15.4645 28.5669 15.0538L28.5644 15.0534ZM11.9197 15.4352C11.9459 15.2617 11.9942 15.1171 12.0698 15.0049C12.1832 14.8337 12.3558 14.74 12.5984 14.74C12.8411 14.74 13.0016 14.8341 13.1165 15.0049C13.1926 15.1177 13.2259 15.2675 13.2384 15.4352L11.9139 15.435L11.9197 15.4352ZM13.76 15.0534C13.7136 14.8811 13.5983 14.7064 13.5232 14.6266C13.4037 14.5005 13.2876 14.4114 13.1716 14.3628C13.0041 14.2925 12.8238 14.2564 12.6418 14.2567C12.4109 14.2567 12.2011 14.2953 12.0311 14.3736C11.8611 14.4525 11.7181 14.5598 11.6056 14.694C11.4934 14.8282 11.4087 14.9867 11.3548 15.1683C11.301 15.3476 11.2739 15.5443 11.2739 15.7502C11.2739 15.9607 11.3019 16.1562 11.3578 16.3332C11.4138 16.5114 11.5043 16.6676 11.6251 16.7971C11.747 16.9278 11.9029 17.0296 12.0904 17.1014C12.2768 17.1725 12.5018 17.2094 12.762 17.2086C13.2966 17.2069 13.5779 17.0894 13.6927 17.0258C13.7131 17.0145 13.7326 16.9949 13.7083 16.9386L13.5876 16.6043C13.569 16.5544 13.5179 16.5725 13.5179 16.5725C13.3854 16.6213 13.1979 16.709 12.7583 16.7078C12.4723 16.7074 12.259 16.6237 12.1253 16.4926C11.9894 16.3585 11.9214 16.163 11.9108 15.8853L13.7628 15.8867C13.7628 15.8867 13.8116 15.8862 13.8166 15.8393C13.8186 15.8198 13.8801 15.4645 13.7613 15.0538L13.76 15.0534ZM7.92266 16.6267C7.85011 16.5696 7.84003 16.5556 7.816 16.5184C7.77931 16.4626 7.76056 16.3831 7.76056 16.2813C7.76056 16.1217 7.81447 16.006 7.92583 15.9285C7.92466 15.9287 8.08524 15.792 8.46268 15.7966C8.63068 15.7996 8.79828 15.8137 8.96436 15.8388V16.6683H8.9646C8.9646 16.6683 8.73017 16.7181 8.46526 16.7338C8.089 16.7562 7.92255 16.627 7.92372 16.6273L7.92266 16.6267ZM8.65878 15.3427C8.58376 15.3372 8.48647 15.3346 8.37043 15.3346C8.21219 15.3346 8.05864 15.354 7.91563 15.3922C7.77146 15.4306 7.64135 15.49 7.52999 15.5692C7.41833 15.6478 7.32649 15.7507 7.26157 15.8699C7.19604 15.9902 7.16264 16.1314 7.16264 16.291C7.16264 16.453 7.19112 16.5929 7.24738 16.7075C7.30252 16.8211 7.38551 16.9193 7.48885 16.9932C7.59165 17.067 7.71859 17.1216 7.86511 17.154C8.01046 17.1867 8.17456 17.2033 8.35508 17.2033C8.54497 17.2033 8.73368 17.1875 8.91654 17.1571C9.07228 17.1306 9.22743 17.1008 9.38189 17.0678C9.44354 17.0538 9.512 17.0354 9.512 17.0354C9.55771 17.024 9.5542 16.9757 9.5542 16.9757L9.55314 15.3099C9.55314 14.9444 9.45421 14.6725 9.25893 14.5048C9.06435 14.337 8.77952 14.2526 8.41028 14.2526C8.27197 14.2526 8.04809 14.2711 7.91446 14.2976C7.91446 14.2976 7.51124 14.3749 7.34479 14.5035C7.34479 14.5035 7.30822 14.5257 7.32815 14.576L7.45943 14.9231C7.47572 14.9681 7.52014 14.9527 7.52014 14.9527C7.52014 14.9527 7.53409 14.9473 7.5505 14.9377C7.90567 14.7468 8.35578 14.7526 8.35578 14.7526C8.55505 14.7526 8.70977 14.7925 8.81292 14.8706C8.91384 14.947 8.9653 15.0626 8.9653 15.3055V15.3827C8.80706 15.36 8.66054 15.3469 8.66054 15.3469L8.65878 15.3427ZM23.5452 14.4022C23.5479 14.3961 23.5493 14.3895 23.5493 14.3828C23.5494 14.3762 23.5481 14.3696 23.5455 14.3635C23.5429 14.3574 23.5391 14.3518 23.5342 14.3472C23.5294 14.3425 23.5237 14.3389 23.5174 14.3365C23.4859 14.3247 23.3287 14.2919 23.208 14.2845C22.9759 14.2702 22.847 14.3088 22.7309 14.3602C22.6163 14.4112 22.4895 14.4932 22.4191 14.5881L22.4189 14.366C22.4189 14.3354 22.397 14.3108 22.3658 14.3108H21.8922C21.8615 14.3108 21.8393 14.3354 21.8393 14.366V17.0845C21.8393 17.0992 21.8452 17.1132 21.8557 17.1236C21.8663 17.134 21.8805 17.1399 21.8954 17.1399H22.3807C22.3956 17.1399 22.4098 17.134 22.4203 17.1236C22.4308 17.1132 22.4367 17.0992 22.4367 17.0845V15.7194C22.4367 15.5367 22.4571 15.355 22.4978 15.2405C22.5379 15.1273 22.5924 15.0369 22.6595 14.9721C22.7236 14.9096 22.802 14.8631 22.8881 14.8368C22.9689 14.8139 23.0526 14.8023 23.1366 14.8023C23.2333 14.8023 23.3394 14.8268 23.3394 14.8268C23.375 14.8308 23.3948 14.8092 23.4069 14.7775C23.4387 14.6941 23.5288 14.4444 23.5464 14.3946" fill="#FFFFFE"/>
<path fill-rule="evenodd" clip-rule="evenodd" d="M19.0128 13.1473C18.9529 13.1294 18.8918 13.1151 18.8301 13.1045C18.7471 13.0908 18.663 13.0844 18.5788 13.0853C18.2444 13.0853 17.9808 13.1785 17.7957 13.3627C17.6119 13.5455 17.4868 13.8239 17.4241 14.1903L17.4015 14.3139H16.9817C16.9817 14.3139 16.9305 14.3119 16.9197 14.367L16.8508 14.7465C16.846 14.7828 16.8618 14.8055 16.911 14.8052H17.3197L16.9051 17.0892C16.8726 17.2731 16.8354 17.4244 16.7943 17.539C16.7537 17.6522 16.7141 17.737 16.6654 17.7985C16.6181 17.8581 16.5733 17.9019 16.4961 17.9275C16.4323 17.9487 16.359 17.9584 16.2785 17.9584C16.2338 17.9584 16.1742 17.951 16.1303 17.9423C16.0863 17.9337 16.0635 17.924 16.0305 17.9104C16.0305 17.9104 15.9826 17.8923 15.9637 17.9398C15.9483 17.9785 15.8395 18.2741 15.8266 18.3106C15.8134 18.3467 15.8318 18.3752 15.855 18.3834C15.9094 18.4026 15.9499 18.4149 16.024 18.4321C16.1269 18.4561 16.2136 18.4576 16.2948 18.4576C16.465 18.4576 16.6201 18.434 16.7487 18.3881C16.8781 18.342 16.9908 18.2616 17.0904 18.1527C17.1981 18.0353 17.2659 17.9123 17.3307 17.7446C17.3948 17.5784 17.4494 17.372 17.4931 17.1315L17.9097 14.8052H18.5188C18.5188 14.8052 18.5701 14.8071 18.5808 14.7521L18.6497 14.3727C18.6545 14.3364 18.6388 14.3137 18.5893 14.3139H17.9982C18.0012 14.3008 18.028 14.0955 18.0959 13.9023C18.1248 13.8199 18.1793 13.7534 18.2255 13.7077C18.2686 13.6641 18.3217 13.6315 18.3803 13.6126C18.4446 13.593 18.5116 13.5834 18.5788 13.5843C18.6345 13.5843 18.6891 13.5909 18.7307 13.5995C18.788 13.6115 18.8103 13.6179 18.8253 13.6223C18.8855 13.6404 18.8936 13.6229 18.9055 13.5941L19.0468 13.2109C19.0614 13.1697 19.026 13.1524 19.0128 13.1473ZM10.7522 17.094C10.7522 17.1246 10.7301 17.1494 10.6992 17.1494H10.2089C10.1778 17.1494 10.1558 17.1246 10.1558 17.094V13.1992C10.1558 13.1688 10.1778 13.1442 10.2089 13.1442H10.6992C10.7301 13.1442 10.7522 13.1688 10.7522 13.1992V17.094Z" fill="#FFFFFE"/>
</g>
<defs>
<clipPath id="clip0_3752_16931">
<rect width="32" height="22.0952" fill="white" transform="translate(0 5.33325)"/>
</clipPath>
</defs>
</svg>
