<svg width="32" height="32" viewBox="0 0 32 32" fill="none" xmlns="http://www.w3.org/2000/svg">
<rect width="32" height="32" rx="4.10335" fill="#82B6A1"/>
<path fill-rule="evenodd" clip-rule="evenodd" d="M16.6281 6.66675C11.0496 6.66675 6.6665 11.0499 6.6665 16.6284C6.6665 19.5505 7.86189 22.2069 9.7214 24.0664C10.3855 24.7305 11.5809 24.7305 12.3778 24.1992C13.4404 23.2695 15.0343 22.7382 16.6281 22.7382C18.3548 22.7382 19.683 23.2695 20.8784 24.1992C21.6754 24.8633 22.7379 24.7305 23.5349 23.9336C25.3944 22.0741 26.5898 19.5505 26.5898 16.6284C26.4569 11.1827 22.0738 6.66675 16.6281 6.66675ZM16.4953 21.8084C13.4404 21.8084 11.4481 19.5505 11.4481 16.7612C11.4481 13.9719 13.4404 11.714 16.4953 11.714C19.5502 11.714 21.5425 13.9719 21.5425 16.7612C21.5425 19.5505 19.5502 21.8084 16.4953 21.8084Z" fill="white"/>
</svg>
